# This file uses centimeters as units for non-parametric coordinates.

mtllib 60jifuben_luxian.mtl
g default
v -1.974012 0.139543 -3.215116
v -3.645131 0.139543 -3.007678
v -3.632542 0.139543 -0.507693
v -1.746649 0.139543 0.393744
v -1.046452 0.139543 0.084409
v 0.100020 0.139543 -0.777242
v 0.900504 0.139543 -0.983817
v 1.032546 0.139543 -1.896562
v 0.357530 0.139543 -2.982354
v -1.046698 0.139543 -3.336196
v -0.839518 0.139543 -1.370151
v -11.245650 0.139543 -0.917443
v -9.808890 0.139543 -0.607615
v -10.030778 0.139543 -2.441897
v -10.461667 0.139543 2.174015
v -11.779948 0.139543 2.389383
v -12.678598 0.139543 3.492476
v -13.113420 0.139543 4.728952
v -12.788049 0.139543 5.894829
v -11.483071 0.139543 7.093071
v -9.879473 0.139543 7.359681
v -9.184041 0.139543 6.321593
v -8.528006 0.139543 5.047559
v -8.996910 0.139543 3.601312
v -10.998972 0.139543 4.925450
v -13.198577 0.139543 12.140064
v -14.270856 0.139543 13.399827
v -14.339016 0.139543 15.277717
v -12.228491 0.139543 16.176287
v -10.736469 0.139543 17.478815
v -10.182825 0.139543 17.476655
v -8.112252 0.139543 15.492835
v -7.636259 0.139543 13.252820
v -9.183536 0.139543 13.191241
v -10.451070 0.139543 12.784363
v -10.736470 0.139543 15.118208
v 0.541765 0.139544 11.215376
v -1.505662 0.139543 11.961588
v -0.871729 0.139543 12.957913
v 2.570260 0.139544 14.811636
v 3.480460 0.139544 14.293395
v 4.427236 0.139544 13.678099
v 5.195025 0.139544 12.461400
v 4.334889 0.139544 10.925410
v 3.048328 0.139544 10.236970
v 1.377408 0.139544 10.461251
v 2.470037 0.139544 12.651745
v -11.971602 0.139543 24.776255
v -11.996616 0.139543 26.011400
v -11.529642 0.139543 27.330986
v -10.288288 0.139543 27.778662
v -8.711118 0.139543 27.772418
v -7.784555 0.139543 26.779413
v -6.468483 0.139543 26.034754
v -7.126948 0.139543 24.861062
v -7.834665 0.139543 23.681181
v -10.904859 0.139543 23.698140
v -9.090095 0.139543 25.913064
v -0.063894 0.139544 23.842491
v -0.691930 0.139544 23.255670
v 1.743870 0.139544 19.394019
v -0.322803 0.139544 21.644638
v 1.712793 0.139544 24.437599
v 2.795058 0.139544 24.309193
v 4.044132 0.139544 23.206045
v 4.341726 0.139544 22.161694
v 4.008605 0.139544 20.734537
v 2.432351 0.139544 19.505695
v 2.226556 0.139544 22.313905
v -3.299280 0.139543 23.934281
v -4.309697 0.139543 25.548325
v -1.605159 0.139544 23.340293
v -2.323441 0.139544 24.911617
v -9.111123 0.139543 23.690382
v 2.419680 0.139544 17.349827
v 3.536518 0.139544 17.229573
v 0.111774 0.139544 20.067279
v 0.964811 0.139544 13.628972
v -10.213445 0.139543 16.114407
v -6.345140 0.139543 14.701356
v -6.469522 0.139543 13.619023
v -11.938812 0.139543 11.496913
v -10.552943 0.139543 11.310201
v -11.639643 0.139543 10.005615
v -10.354492 0.139543 9.799242
v -12.247652 0.139543 6.960319
v -11.609773 0.139544 0.593354
v -10.577962 0.139544 0.877643
v 0.207304 0.139544 11.803096
v -11.319014 0.139543 8.896153
v -10.094773 0.139543 8.871359
v -8.278165 0.139543 -2.744111
v -7.828602 0.139543 -1.210586
v -1.112085 0.139543 24.051991
v -9.094843 0.139543 15.887305
v 1.099024 0.139543 19.946685
v -1.245963 0.139543 2.317042
v -0.542309 0.139543 2.007708
v -0.713055 0.139543 -0.720288
v 0.734128 0.139543 12.935995
vt 0.626409 0.751909
vt 0.548284 0.695147
vt 0.451716 0.695147
vt 0.373591 0.751909
vt 0.343750 0.843750
vt 0.373591 0.935591
vt 0.451716 0.992353
vt 0.548284 0.992353
vt 0.626409 0.935591
vt 0.656250 0.843750
vt 0.500000 0.837500
vt 0.000000 0.000000
vt 1.000000 0.000000
vt 0.500000 1.000000
vt 0.000000 0.842013
vt 1.000000 0.842013
vt 0.000000 0.000000
vt 1.000000 0.000000
vt 1.000000 1.000000
vt 0.000000 1.000000
vt 0.626409 0.935591
vt 0.548284 0.992353
vt 0.500000 0.837500
vt 0.451716 0.992353
vt 0.373591 0.935591
vt 0.358671 0.889671
vt 0.343750 0.843750
vt 0.373591 0.751909
vt 0.451716 0.695147
vt 0.548284 0.695147
vt 0.626409 0.751909
vt 0.656250 0.843750
vt 0.626409 0.935591
vt 0.548284 0.992353
vt 0.500000 0.837500
vt 0.451716 0.992353
vt 0.365320 0.910135
vt 0.343750 0.843750
vt 0.373591 0.751909
vt 0.412654 0.723528
vt 0.451716 0.695147
vt 0.548284 0.695147
vt 0.626409 0.751909
vt 0.656250 0.843750
vt 0.626409 0.935591
vt 0.548284 0.992353
vt 0.500000 0.837500
vt 0.451716 0.992353
vt 0.410247 0.962224
vt 0.373591 0.935591
vt 0.343750 0.843750
vt 0.373591 0.751909
vt 0.451716 0.695147
vt 0.548284 0.695147
vt 0.626409 0.751909
vt 0.656250 0.843750
vt 0.626409 0.935591
vt 0.548284 0.992353
vt 0.500000 0.837500
vt 0.451716 0.992353
vt 0.373591 0.935591
vt 0.343750 0.843750
vt 0.373591 0.751909
vt 0.451716 0.695147
vt 0.548284 0.695147
vt 0.626409 0.751909
vt 0.641329 0.797829
vt 0.656250 0.843750
vt 0.000000 0.719847
vt 1.000000 0.719847
vt 1.000000 1.000000
vt 0.000000 1.000000
vt 0.579857 0.969413
vt 0.548284 0.992353
vt 0.500000 0.837500
vt 0.451716 0.992353
vt 0.373591 0.935591
vt 0.343750 0.843750
vt 0.373591 0.751909
vt 0.451716 0.695147
vt 0.548284 0.695147
vt 0.626409 0.751909
vt 0.656250 0.843750
vt 0.626409 0.935591
vt 0.000000 0.000000
vt 1.000000 0.000000
vt 1.000000 0.500000
vt 0.000000 0.500000
vt 0.000000 0.500000
vt 1.000000 0.500000
vt 1.000000 1.000000
vt 0.000000 1.000000
vt 0.000000 0.000000
vt 1.000000 0.000000
vt 0.000000 0.000000
vt 1.000000 0.000000
vt 1.000000 0.186503
vt 0.000000 0.176328
vt 1.000000 1.000000
vt 0.000000 1.000000
vt 0.000000 0.000000
vt 1.000000 0.000000
vt 1.000000 0.258231
vt 0.000000 0.258231
vt 0.000000 0.485191
vt 1.000000 0.485191
vt 1.000000 1.000000
vt 0.000000 1.000000
vt 1.000000 0.451350
vt 0.000000 0.451350
vt 0.598336 0.955987
vt 1.000000 0.129116
vt 0.000000 0.129116
vt 1.000000 0.605230
vt 0.000000 0.605230
vt 1.000000 0.840944
vt 0.427790 0.712531
vt 0.608016 0.948955
vt 0.000000 0.000000
vt 1.000000 0.000000
vt 1.000000 1.000000
vt 0.000000 1.000000
vt 0.361212 0.790009
vt 0.426877 0.974306
vn 0.000000 1.000000 0.000000
vn 0.000000 1.000000 -0.000000
vn 0.000000 1.000000 0.000000
vn 0.000000 1.000000 0.000000
vn 0.000000 1.000000 0.000000
vn 0.000000 1.000000 0.000000
vn 0.000000 1.000000 0.000000
vn 0.000000 1.000000 0.000000
vn 0.000000 1.000000 0.000000
vn 0.000000 1.000000 0.000000
vn 0.000000 1.000000 0.000000
vn 0.000000 1.000000 0.000000
vn 0.000000 1.000000 0.000000
vn 0.000000 1.000000 0.000000
vn 0.000000 1.000000 0.000000
vn 0.000000 1.000000 -0.000000
vn 0.000000 1.000000 -0.000000
vn 0.000000 1.000000 -0.000000
vn 0.000000 1.000000 -0.000000
vn 0.000000 1.000000 -0.000000
vn 0.000000 1.000000 -0.000000
vn 0.000000 1.000000 0.000000
vn 0.000000 1.000000 0.000000
vn 0.000000 1.000000 0.000000
vn 0.000000 1.000000 0.000000
vn 0.000000 1.000000 0.000000
vn 0.000000 1.000000 0.000000
vn 0.000000 1.000000 0.000000
vn 0.000000 1.000000 0.000000
vn 0.000000 1.000000 0.000000
vn 0.000000 1.000000 0.000000
vn 0.000000 1.000000 0.000000
vn 0.000000 1.000000 0.000000
vn 0.000000 1.000000 0.000000
vn 0.000000 1.000000 0.000000
vn 0.000000 1.000000 0.000000
vn 0.000000 1.000000 0.000000
vn 0.000000 1.000000 0.000000
vn 0.000000 1.000000 -0.000000
vn 0.000000 1.000000 -0.000000
vn 0.000000 1.000000 0.000000
vn 0.000000 1.000000 0.000000
vn 0.000000 1.000000 -0.000000
vn 0.000000 1.000000 -0.000000
vn 0.000000 1.000000 -0.000000
vn 0.000000 1.000000 0.000000
vn 0.000000 1.000000 0.000000
vn 0.000000 1.000000 0.000000
vn 0.000000 1.000000 0.000000
vn 0.000000 1.000000 -0.000000
vn 0.000000 1.000000 -0.000000
vn 0.000000 1.000000 -0.000000
vn -0.000000 1.000000 0.000000
vn -0.000000 1.000000 0.000000
vn -0.000000 1.000000 0.000000
vn -0.000000 1.000000 0.000000
vn -0.000000 1.000000 0.000000
vn -0.000000 1.000000 0.000000
vn 0.000000 1.000000 -0.000000
vn 0.000000 1.000000 0.000000
vn 0.000000 1.000000 0.000000
vn 0.000000 1.000000 0.000000
vn 0.000000 1.000000 -0.000000
vn 0.000000 1.000000 -0.000000
vn 0.000000 1.000000 0.000000
vn 0.000000 1.000000 0.000000
vn 0.000000 1.000000 0.000000
vn 0.000000 1.000000 0.000000
vn 0.000000 1.000000 0.000000
vn 0.000000 1.000000 0.000000
vn 0.000000 1.000000 0.000000
vn 0.000000 1.000000 -0.000000
vn 0.000000 1.000000 0.000000
vn 0.000000 1.000000 0.000000
vn 0.000000 1.000000 0.000000
vn 0.000000 1.000000 -0.000000
vn 0.000000 1.000000 -0.000000
vn 0.000000 1.000000 0.000000
vn 0.000000 1.000000 0.000000
vn 0.000000 1.000000 0.000000
vn 0.000000 1.000000 0.000000
vn 0.000000 1.000000 0.000000
vn 0.000000 1.000000 0.000000
vn -0.000000 1.000000 -0.000000
vn 0.000000 1.000000 -0.000000
vn 0.000000 1.000000 -0.000000
vn 0.000000 1.000000 0.000000
vn 0.000000 1.000000 0.000000
vn 0.000000 1.000000 0.000000
vn 0.000000 1.000000 0.000000
vn 0.000000 1.000000 0.000000
vn 0.000000 1.000000 0.000000
vn -0.000000 1.000000 -0.000000
vn 0.000000 1.000000 0.000000
vn 0.000000 1.000000 0.000000
vn -0.000000 1.000000 0.000000
vn -0.000000 1.000000 0.000000
vn 0.000000 1.000000 0.000000
vn 0.000000 1.000000 0.000000
vn 0.000000 1.000000 0.000000
vn 0.000000 1.000000 0.000000
vn 0.000000 1.000000 0.000000
vn 0.000000 1.000000 0.000000
vn 0.000000 1.000000 0.000000
vn 0.000000 1.000000 0.000000
vn 0.000000 1.000000 0.000000
vn 0.000000 1.000000 0.000000
vn 0.000000 1.000000 0.000000
vn 0.000000 1.000000 0.000000
vn 0.000000 1.000000 0.000000
vn 0.000000 1.000000 0.000000
vn 0.000000 1.000000 0.000000
vn 0.000000 1.000000 0.000000
vn 0.000000 1.000000 0.000000
vn 0.000000 1.000000 0.000000
vn 0.000000 1.000000 0.000000
vn 0.000000 1.000000 0.000000
vn 0.000000 1.000000 -0.000000
vn 0.000000 1.000000 -0.000000
vn 0.000000 1.000000 -0.000000
vn 0.000000 1.000000 -0.000000
vn 0.000000 1.000000 0.000000
vn 0.000000 1.000000 0.000000
vn 0.000000 1.000000 -0.000000
vn 0.000000 1.000000 -0.000000
vn 0.000000 1.000000 -0.000000
vn 0.000000 1.000000 -0.000000
vn 0.000000 1.000000 0.000000
vn -0.000000 1.000000 0.000000
vn -0.000000 1.000000 0.000000
vn -0.000000 1.000000 0.000000
vn -0.000000 1.000000 0.000000
vn -0.000000 1.000000 0.000000
vn -0.000000 1.000000 0.000000
vn 0.000000 1.000000 0.000000
vn -0.000000 1.000000 -0.000000
vn 0.000000 1.000000 0.000000
vn 0.000000 1.000000 0.000000
vn 0.000000 1.000000 0.000000
vn 0.000000 1.000000 0.000000
vn 0.000000 1.000000 0.000000
vn 0.000000 1.000000 0.000000
s 1
g polySurface5
usemtl initialShadingGroup
f 1/9/1 2/8/2 11/11/3
f 2/8/2 3/7/4 11/11/3
f 3/7/4 4/6/5 11/11/3
f 4/6/5 5/5/6 11/11/3
f 5/5/6 99/123/7 11/11/3
f 6/4/8 7/3/9 11/11/3
f 7/3/9 8/2/10 11/11/3
f 8/2/10 9/1/11 11/11/3
f 9/1/11 10/10/12 11/11/3
f 10/10/12 1/9/1 11/11/3
s 2
f 13/15/13 14/16/14 12/14/15
f 3/12/16 2/13/17 92/114/18 93/115/19
s 3
f 13/17/20 12/18/21 87/109/22 88/110/23
s 4
f 16/21/24 17/22/25 25/23/26
f 17/22/25 18/24/27 25/23/26
f 18/24/27 19/25/28 25/23/26
f 19/25/28 86/26/29 25/23/26
f 20/27/30 21/28/31 25/23/26
f 21/28/31 22/29/32 25/23/26
f 22/29/32 23/30/33 25/23/26
f 23/30/33 24/31/34 25/23/26
f 24/31/34 15/32/35 25/23/26
f 15/32/35 16/21/24 25/23/26
s 5
f 26/33/36 27/34/37 36/35/38
f 27/34/37 28/36/39 36/35/38
f 28/36/39 29/37/40 36/35/38
f 30/38/41 31/39/42 36/35/38
s off
f 79/40/43 95/117/44 36/35/45
s 5
f 32/41/46 33/42/47 36/35/38
f 33/42/47 34/43/48 36/35/38
f 34/43/48 35/44/49 36/35/38
f 35/44/49 26/33/36 36/35/38
s 7
f 37/45/50 89/111/51 47/47/52
s 8
f 38/46/53 39/48/54 47/47/55
s off
f 100/124/56 78/49/57 47/47/58
s 7
f 40/50/59 41/51/60 47/47/52
f 41/51/60 42/52/61 47/47/52
f 42/52/61 43/53/62 47/47/52
f 43/53/62 44/54/63 47/47/52
f 44/54/63 45/55/64 47/47/52
f 45/55/64 46/56/65 47/47/52
f 46/56/65 37/45/50 47/47/52
s 10
f 48/57/66 49/58/67 58/59/68
f 49/58/67 50/60/69 58/59/68
f 50/60/69 51/61/70 58/59/68
f 51/61/70 52/62/71 58/59/68
f 52/62/71 53/63/72 58/59/68
f 53/63/72 54/64/73 58/59/68
f 54/64/73 55/65/74 58/59/68
f 55/65/74 56/66/75 58/59/68
f 74/67/76 57/68/77 58/59/68
f 57/68/77 48/57/66 58/59/68
s 11
f 72/69/78 73/70/79 94/116/80 60/72/81
s 12
f 77/73/82 62/74/83 69/75/84
f 62/74/83 60/76/85 69/75/84
f 60/76/85 59/77/86 69/75/84
f 59/77/86 63/78/87 69/75/84
f 63/78/87 64/79/88 69/75/84
f 64/79/88 65/80/89 69/75/84
f 65/80/89 66/81/90 69/75/84
f 66/81/90 67/82/91 69/75/84
f 67/82/91 68/83/92 69/75/84
f 68/83/92 61/84/93 69/75/84
s 11
f 55/85/94 54/86/95 71/87/96 70/88/97
f 70/88/97 71/87/96 73/70/79 72/69/78
s 10
f 56/66/75 74/67/98 58/59/68
s 13
f 75/89/99 76/90/100 41/91/101 40/92/102
f 61/93/103 68/94/104 76/90/100 75/89/99
s off
f 96/118/105 77/73/106 69/75/107
s 7
f 78/49/108 40/50/59 47/47/52
s off
f 33/95/109 32/96/110 80/97/111 81/98/112
s 5
f 31/39/42 79/40/113 36/35/38
s off
f 81/98/114 80/97/115 39/99/116 38/100/117
s 5
f 29/37/40 30/38/41 36/35/38
s 17
f 21/101/118 20/102/119 90/112/120 91/113/121
f 83/105/122 82/106/123 26/107/124 35/108/125
f 85/104/126 84/103/127 82/106/123 83/105/122
s 4
f 86/26/128 20/27/30 25/23/26
s 3
f 88/110/23 87/109/22 16/19/129 15/20/130
s 8
f 89/111/131 38/46/53 47/47/55
s 17
f 91/113/121 90/112/120 84/103/127 85/104/126
s 2
f 93/115/19 92/114/18 14/16/14 13/15/13
s off
f 60/72/132 94/116/133 59/71/134
s 5
f 95/117/135 32/41/46 36/35/38
s 12
f 61/84/93 96/118/136 69/75/84
s off
f 5/119/137 4/120/138 97/121/139 98/122/140
s 1
f 99/123/141 6/4/8 11/11/3
s 8
f 39/48/54 100/124/142 47/47/55
