# This file uses centimeters as units for non-parametric coordinates.

mtllib chongdong_luxian.mtl
g default
v -21.205765 0.278762 9.614469
v -23.505957 0.278762 10.491042
v -23.287204 0.278762 11.951410
v -20.358828 0.278762 13.076929
v -16.837545 0.278762 11.242424
v -17.604517 0.278762 12.594324
v -22.233037 0.278762 8.995230
v -24.305231 0.278762 8.938222
v -25.154048 0.278762 8.768219
v -21.356982 0.278762 6.208234
v -22.601756 0.278762 5.227707
v -26.259461 0.278762 7.876028
v -23.697788 0.278762 5.178115
v -25.283449 0.278762 6.512494
v -24.701568 0.278762 4.341005
v -26.678386 0.278762 4.788030
v -23.478357 0.278762 3.234783
v -23.101725 0.278762 1.140185
v -19.139610 0.278762 2.029448
v -18.412680 0.278762 10.453699
v -19.961296 0.278762 8.805507
v -17.633271 0.278762 9.247684
v -18.851242 0.278762 8.114558
v -17.172213 0.278762 7.741983
v -16.797862 0.278762 9.188775
v -16.298729 0.278762 9.019159
v -15.874545 0.278762 6.920671
v -19.192112 0.278762 6.271974
v -21.572361 0.278762 7.001140
v -17.187689 0.278762 4.415726
v -18.803873 0.278762 3.454430
v -22.270249 0.278762 4.348373
v -22.678852 0.278762 8.071493
v -17.466410 0.278762 6.539172
v -16.665940 0.278762 4.697827
v -15.837035 0.278762 6.194378
v -16.560543 0.278762 1.117016
v -17.841021 0.278762 -0.458113
v -15.754695 0.278762 0.776077
v -16.853962 0.278762 -1.493747
v -14.589538 0.278762 3.258279
v -13.451694 0.278762 2.814333
v -13.589216 0.278762 4.615380
v -12.535594 0.278762 4.186294
v -12.623858 0.278762 5.750861
v -11.433882 0.278762 3.991759
v -11.197546 0.278762 5.735926
v -12.776040 0.278762 2.074145
v -14.114573 0.278762 0.180370
v -16.098905 0.278762 -2.711521
v -13.700406 0.278762 6.836517
v -13.082913 0.278762 6.700226
v -21.265148 0.278762 -1.633687
v -20.692415 0.278762 -2.650987
v -22.903084 0.278762 -3.317470
v -23.304959 0.278762 -2.021534
v -19.736905 0.278762 -4.509816
v -22.385111 0.278762 -5.366839
v -24.311523 0.278762 -6.057238
v -24.004051 0.278762 -3.657557
v -24.011394 0.278762 -2.155856
v -20.311543 0.278762 -5.750811
v -21.637724 0.278762 -5.948222
v -21.195244 0.278762 -8.189294
v -22.050896 0.278762 -7.328257
v -24.642379 0.278762 -9.494203
v -24.630588 0.278762 -8.729985
v -21.243067 0.278762 -9.399059
v -24.622093 0.278762 -10.781799
v -20.992137 0.278762 -10.958634
v -23.550617 0.278762 -12.531424
v -21.542768 0.278762 -13.453483
v -20.218926 0.278762 -10.953135
v -19.629923 0.278762 -10.588792
v -18.821167 0.278762 -11.617754
v -16.923928 0.278762 -9.587850
v -18.725004 0.278762 -7.993238
v -18.130219 0.278762 -7.384934
v -16.368504 0.278762 -8.746390
v -18.546215 0.278762 -12.590345
v -18.986212 0.278762 -13.407402
v -17.460197 0.278762 -12.110617
v -17.237959 0.278762 -13.142289
v -19.230082 0.278762 -9.441938
v -17.946409 0.278762 -11.287112
v -14.211541 0.278762 -12.824232
v -15.331704 0.278762 -11.184532
v -13.933333 0.278762 -9.456376
v -11.722185 0.278762 -11.315094
v -11.293584 0.278762 -7.667574
v -10.606847 0.278762 -9.490902
v -15.580541 0.278762 -8.082389
v -14.331502 0.278762 -6.497564
v -16.881983 0.278762 -7.084782
v -15.242093 0.278762 -5.798271
v -12.813527 0.278762 -1.421603
v -15.023967 0.278762 -4.313860
v -9.012912 0.278762 0.067201
v -13.498269 0.278762 -4.831704
v -10.378858 0.278762 -6.190716
v -8.251929 0.278762 -1.907540
v -8.016152 0.278762 -3.834708
v -9.422668 0.278762 -6.620265
v -25.159560 0.278762 2.425202
v -24.312174 0.278762 3.643990
v -19.343361 0.278762 7.225687
v -20.513096 0.278762 7.820354
v -24.587051 0.278762 10.917473
v -24.196431 0.278762 11.850351
vt 0.500000 0.000000
vt 1.000000 0.000000
vt 1.000000 1.000000
vt 0.500000 1.000000
vt 0.000000 0.000000
vt 0.000000 1.000000
vt 0.000000 0.000000
vt 1.000000 0.000000
vt 1.000000 1.000000
vt 0.000000 1.000000
vt 0.000000 0.705990
vt 1.000000 0.705990
vt 1.000000 1.000000
vt 0.000000 1.000000
vt 0.000000 0.000000
vt 1.000000 0.000000
vt 1.000000 1.000000
vt 0.000000 1.000000
vt 0.000000 0.000000
vt 1.000000 0.000000
vt 1.000000 1.000000
vt 0.000000 1.000000
vt 0.000000 0.000000
vt 1.000000 0.000000
vt 1.000000 1.000000
vt 0.000000 1.000000
vt 0.000000 0.000000
vt 1.000000 0.000000
vt 0.500000 1.000000
vt 0.000000 0.000000
vt 1.000000 0.000000
vt 1.000000 1.000000
vt 0.000000 1.000000
vt 0.000000 0.000000
vt 1.000000 0.000000
vt 1.000000 1.000000
vt 0.000000 1.000000
vt 0.000000 0.684800
vt 1.000000 0.684800
vt 1.000000 1.000000
vt 0.000000 1.000000
vt 0.000000 0.000000
vt 1.000000 0.000000
vt 1.000000 1.000000
vt 0.000000 1.000000
vt 0.000000 0.490821
vt 1.000000 0.490821
vt 1.000000 1.000000
vt 0.000000 1.000000
vt 0.000000 0.465037
vt 1.000000 0.732518
vt 0.000000 1.000000
vt 0.000000 0.000000
vt 1.000000 0.000000
vt 0.000000 0.078751
vt 1.000000 0.000000
vt 1.000000 0.157502
vt 1.000000 0.422579
vt 0.000000 0.422579
vt 0.000000 0.000000
vt 1.000000 0.000000
vt 0.000000 0.000000
vt 1.000000 0.000000
vt 1.000000 0.722194
vt 0.000000 0.722194
vt 0.000000 0.000000
vt 1.000000 0.000000
vt 1.000000 1.000000
vt 0.000000 0.000000
vt 1.000000 0.000000
vt 1.000000 1.000000
vt 0.000000 1.000000
vt 0.000000 0.000000
vt 1.000000 0.000000
vt 1.000000 1.000000
vt 0.000000 1.000000
vt 0.000000 0.000000
vt 1.000000 0.000000
vt 1.000000 0.285816
vt 0.000000 0.285816
vt 0.714184 0.000000
vt 1.000000 0.000000
vt 1.000000 1.000000
vt 0.714184 1.000000
vt 0.714184 0.000000
vt 1.000000 0.000000
vt 1.000000 1.000000
vt 0.714184 1.000000
vt 0.714184 0.000000
vt 1.000000 0.500000
vt 0.714184 1.000000
vt 0.000000 0.000000
vt 0.000000 1.000000
vt 0.000000 0.000000
vt 0.000000 1.000000
vt 0.000000 0.000000
vt 0.000000 1.000000
vt 1.000000 1.000000
vt 0.000000 1.000000
vt 0.000000 0.000000
vt 1.000000 0.000000
vt 1.000000 1.000000
vt 0.000000 1.000000
vt 0.000000 0.563259
vt 1.000000 0.563259
vt 1.000000 0.887654
vt 0.000000 0.887654
vt 0.000000 0.563259
vt 1.000000 0.563259
vt 1.000000 0.887654
vt 0.000000 0.887654
vt 0.000000 0.000000
vt 1.000000 0.000000
vt 0.000000 0.000000
vt 1.000000 0.000000
vt 1.000000 1.000000
vt 0.000000 1.000000
vt 1.000000 1.000000
vt 0.000000 1.000000
vt 0.000000 0.000000
vt 1.000000 0.000000
vt 1.000000 1.000000
vt 0.000000 1.000000
vt 0.000000 0.000000
vt 1.000000 0.000000
vt 1.000000 1.000000
vt 0.000000 1.000000
vt 0.000000 0.000000
vt 1.000000 0.000000
vt 1.000000 1.000000
vt 0.000000 1.000000
vt 0.000000 0.000000
vt 1.000000 0.000000
vt 1.000000 1.000000
vt 0.000000 1.000000
vt 0.000000 0.000000
vt 1.000000 0.000000
vt 1.000000 1.000000
vt 0.000000 1.000000
vt 0.000000 0.583530
vt 1.000000 0.583530
vt 1.000000 1.000000
vt 0.000000 1.000000
vt 0.000000 0.813380
vt 1.000000 0.813380
vt 1.000000 1.000000
vt 0.000000 1.000000
vt 0.000000 0.000000
vt 1.000000 0.000000
vt 0.000000 0.000000
vt 1.000000 0.000000
vt 1.000000 1.000000
vt 0.000000 1.000000
vt 0.000000 0.000000
vt 1.000000 0.000000
vt 1.000000 0.272636
vt 0.000000 0.272636
vt 0.000000 0.000000
vt 1.000000 0.000000
vt 1.000000 0.359394
vt 0.000000 0.359394
vt 0.000000 0.687361
vt 1.000000 0.687361
vt 1.000000 1.000000
vt 0.000000 1.000000
vt 0.000000 0.000000
vt 1.000000 0.000000
vt 1.000000 1.000000
vt 0.000000 1.000000
vt 0.000000 0.000000
vt 1.000000 0.000000
vt 1.000000 1.000000
vt 0.000000 1.000000
vt 0.000000 0.000000
vt 1.000000 0.000000
vt 1.000000 0.663362
vt 0.000000 0.663362
vt 1.000000 1.000000
vt 0.000000 1.000000
vt 0.000000 0.000000
vt 1.000000 0.000000
vt 1.000000 1.000000
vt 0.000000 1.000000
vt 0.000000 0.000000
vt 1.000000 0.000000
vt 1.000000 0.250137
vt 0.000000 0.250137
vt 1.000000 0.403888
vt 0.000000 0.403888
vt 0.000000 0.869691
vt 1.000000 0.869691
vt 1.000000 1.000000
vt 0.000000 1.000000
vt 0.000000 0.000000
vt 1.000000 0.000000
vt 1.000000 1.000000
vt 0.000000 1.000000
vt 0.000000 0.000000
vt 1.000000 0.000000
vt 1.000000 1.000000
vt 0.000000 1.000000
vt 0.000000 0.547518
vt 1.000000 0.547518
vt 1.000000 0.487810
vt 0.000000 0.487810
vt 0.000000 0.000000
vt 1.000000 0.000000
vt 1.000000 1.000000
vt 0.000000 1.000000
vn 0.000000 1.000000 0.000000
vn 0.000000 1.000000 0.000000
vn 0.000000 1.000000 0.000000
vn 0.000000 1.000000 0.000000
vn 0.000000 1.000000 0.000000
vn 0.000000 1.000000 0.000000
vn 0.000000 1.000000 0.000000
vn 0.000000 1.000000 0.000000
vn 0.000000 1.000000 0.000000
vn 0.000000 1.000000 0.000000
vn 0.000000 1.000000 0.000000
vn 0.000000 1.000000 0.000000
vn 0.000000 1.000000 0.000000
vn 0.000000 1.000000 0.000000
vn 0.000000 1.000000 0.000000
vn 0.000000 1.000000 0.000000
vn 0.000000 1.000000 0.000000
vn 0.000000 1.000000 0.000000
vn 0.000000 1.000000 0.000000
vn 0.000000 1.000000 0.000000
vn 0.000000 1.000000 0.000000
vn 0.000000 1.000000 0.000000
vn 0.000000 1.000000 0.000000
vn 0.000000 1.000000 0.000000
vn 0.000000 1.000000 -0.000000
vn 0.000000 1.000000 -0.000000
vn 0.000000 1.000000 0.000000
vn 0.000000 1.000000 0.000000
vn 0.000000 1.000000 0.000000
vn 0.000000 1.000000 0.000000
vn 0.000000 1.000000 0.000000
vn 0.000000 1.000000 0.000000
vn 0.000000 1.000000 0.000000
vn 0.000000 1.000000 0.000000
vn 0.000000 1.000000 0.000000
vn 0.000000 1.000000 0.000000
vn 0.000000 1.000000 0.000000
vn 0.000000 1.000000 0.000000
vn 0.000000 1.000000 0.000000
vn 0.000000 1.000000 0.000000
vn 0.000000 1.000000 0.000000
vn 0.000000 1.000000 0.000000
vn 0.000000 1.000000 0.000000
vn 0.000000 1.000000 0.000000
vn 0.000000 1.000000 0.000000
vn 0.000000 1.000000 -0.000000
vn 0.000000 1.000000 -0.000000
vn 0.000000 1.000000 0.000000
vn 0.000000 1.000000 0.000000
vn 0.000000 1.000000 0.000000
vn 0.000000 1.000000 0.000000
vn 0.000000 1.000000 0.000000
vn 0.000000 1.000000 0.000000
vn 0.000000 1.000000 0.000000
vn 0.000000 1.000000 0.000000
vn 0.000000 1.000000 0.000000
vn 0.000000 1.000000 0.000000
vn 0.000000 1.000000 0.000000
vn 0.000000 1.000000 0.000000
vn 0.000000 1.000000 0.000000
vn 0.000000 1.000000 0.000000
vn 0.000000 1.000000 0.000000
vn 0.000000 1.000000 0.000000
vn 0.000000 1.000000 0.000000
vn 0.000000 1.000000 0.000000
vn 0.000000 1.000000 0.000000
vn 0.000000 1.000000 0.000000
vn 0.000000 1.000000 0.000000
vn 0.000000 1.000000 0.000000
vn 0.000000 1.000000 0.000000
vn 0.000000 1.000000 0.000000
vn 0.000000 1.000000 0.000000
vn 0.000000 1.000000 0.000000
vn 0.000000 1.000000 0.000000
vn 0.000000 1.000000 0.000000
vn 0.000000 1.000000 0.000000
vn 0.000000 1.000000 0.000000
vn 0.000000 1.000000 0.000000
vn 0.000000 1.000000 0.000000
vn 0.000000 1.000000 0.000000
vn 0.000000 1.000000 0.000000
vn 0.000000 1.000000 0.000000
vn 0.000000 1.000000 0.000000
vn 0.000000 1.000000 0.000000
vn 0.000000 1.000000 0.000000
vn 0.000000 1.000000 0.000000
vn 0.000000 1.000000 0.000000
vn 0.000000 1.000000 0.000000
vn 0.000000 1.000000 0.000000
vn 0.000000 1.000000 0.000000
vn 0.000000 1.000000 0.000000
vn 0.000000 1.000000 0.000000
vn 0.000000 1.000000 0.000000
vn 0.000000 1.000000 0.000000
vn 0.000000 1.000000 0.000000
vn 0.000000 1.000000 0.000000
vn 0.000000 1.000000 0.000000
vn 0.000000 1.000000 0.000000
vn 0.000000 1.000000 0.000000
vn 0.000000 1.000000 0.000000
vn 0.000000 1.000000 0.000000
vn 0.000000 1.000000 0.000000
vn 0.000000 1.000000 0.000000
vn 0.000000 1.000000 0.000000
vn 0.000000 1.000000 0.000000
vn 0.000000 1.000000 0.000000
vn 0.000000 1.000000 0.000000
vn 0.000000 1.000000 0.000000
vn 0.000000 1.000000 0.000000
vn 0.000000 1.000000 0.000000
vn 0.000000 1.000000 0.000000
vn 0.000000 1.000000 0.000000
vn 0.000000 1.000000 0.000000
vn 0.000000 1.000000 0.000000
vn 0.000000 1.000000 0.000000
vn 0.000000 1.000000 0.000000
vn 0.000000 1.000000 0.000000
vn 0.000000 1.000000 0.000000
vn 0.000000 1.000000 0.000000
vn 0.000000 1.000000 0.000000
vn 0.000000 1.000000 0.000000
vn 0.000000 1.000000 0.000000
vn 0.000000 1.000000 0.000000
vn 0.000000 1.000000 0.000000
vn 0.000000 1.000000 0.000000
vn 0.000000 1.000000 0.000000
vn 0.000000 1.000000 0.000000
vn 0.000000 1.000000 0.000000
vn 0.000000 1.000000 0.000000
vn 0.000000 1.000000 0.000000
vn 0.000000 1.000000 0.000000
vn 0.000000 1.000000 0.000000
vn 0.000000 1.000000 0.000000
vn 0.000000 1.000000 0.000000
vn 0.000000 1.000000 0.000000
vn 0.000000 1.000000 0.000000
vn 0.000000 1.000000 0.000000
vn 0.000000 1.000000 0.000000
vn 0.000000 1.000000 0.000000
vn 0.000000 1.000000 0.000000
vn 0.000000 1.000000 0.000000
vn 0.000000 1.000000 0.000000
vn 0.000000 1.000000 0.000000
vn 0.000000 1.000000 0.000000
vn 0.000000 1.000000 0.000000
vn 0.000000 1.000000 0.000000
vn 0.000000 1.000000 0.000000
vn 0.000000 1.000000 0.000000
vn 0.000000 1.000000 0.000000
vn 0.000000 1.000000 0.000000
vn 0.000000 1.000000 0.000000
vn 0.000000 1.000000 0.000000
vn 0.000000 1.000000 0.000000
vn 0.000000 1.000000 0.000000
vn 0.000000 1.000000 0.000000
vn 0.000000 1.000000 0.000000
vn 0.000000 1.000000 0.000000
vn 0.000000 1.000000 0.000000
vn 0.000000 1.000000 0.000000
vn 0.000000 1.000000 0.000000
vn 0.000000 1.000000 0.000000
vn 0.000000 1.000000 0.000000
vn 0.000000 1.000000 0.000000
vn 0.000000 1.000000 0.000000
vn 0.000000 1.000000 0.000000
vn 0.000000 1.000000 0.000000
vn 0.000000 1.000000 0.000000
vn 0.000000 1.000000 0.000000
vn 0.000000 1.000000 0.000000
vn 0.000000 1.000000 0.000000
vn 0.000000 1.000000 0.000000
vn 0.000000 1.000000 0.000000
vn 0.000000 1.000000 0.000000
vn 0.000000 1.000000 0.000000
vn 0.000000 1.000000 0.000000
vn 0.000000 1.000000 0.000000
vn 0.000000 1.000000 0.000000
vn 0.000000 1.000000 0.000000
vn 0.000000 1.000000 0.000000
vn 0.000000 1.000000 0.000000
vn 0.000000 1.000000 0.000000
vn 0.000000 1.000000 0.000000
vn 0.000000 1.000000 0.000000
vn 0.000000 1.000000 0.000000
vn 0.000000 1.000000 0.000000
vn 0.000000 1.000000 0.000000
vn 0.000000 1.000000 0.000000
vn 0.000000 1.000000 0.000000
vn 0.000000 1.000000 0.000000
vn 0.000000 1.000000 0.000000
vn 0.000000 1.000000 0.000000
vn 0.000000 1.000000 0.000000
vn 0.000000 1.000000 0.000000
vn 0.000000 1.000000 0.000000
vn 0.000000 1.000000 0.000000
vn 0.000000 1.000000 0.000000
vn 0.000000 1.000000 0.000000
vn 0.000000 1.000000 0.000000
vn 0.000000 1.000000 0.000000
vn 0.000000 1.000000 0.000000
vn 0.000000 1.000000 0.000000
vn 0.000000 1.000000 0.000000
vn 0.000000 1.000000 0.000000
vn 0.000000 1.000000 0.000000
vn 0.000000 1.000000 0.000000
vn 0.000000 1.000000 0.000000
vn 0.000000 1.000000 0.000000
vn 0.000000 1.000000 0.000000
vn 0.000000 1.000000 0.000000
vn 0.000000 1.000000 0.000000
vn 0.000000 1.000000 0.000000
vn 0.000000 1.000000 0.000000
vn 0.000000 1.000000 0.000000
vn 0.000000 1.000000 0.000000
vn 0.000000 1.000000 0.000000
vn 0.000000 1.000000 0.000000
vn 0.000000 1.000000 0.000000
vn 0.000000 1.000000 0.000000
vn 0.000000 1.000000 0.000000
vn 0.000000 1.000000 0.000000
vn 0.000000 1.000000 0.000000
vn 0.000000 1.000000 0.000000
vn 0.000000 1.000000 0.000000
vn 0.000000 1.000000 0.000000
vn 0.000000 1.000000 0.000000
vn 0.000000 1.000000 0.000000
vn 0.000000 1.000000 0.000000
vn 0.000000 1.000000 0.000000
vn 0.000000 1.000000 0.000000
vn 0.000000 1.000000 0.000000
vn 0.000000 1.000000 0.000000
vn 0.000000 1.000000 0.000000
vn 0.000000 1.000000 0.000000
vn 0.000000 1.000000 0.000000
vn 0.000000 1.000000 0.000000
vn 0.000000 1.000000 0.000000
vn 0.000000 1.000000 0.000000
vn 0.000000 1.000000 0.000000
vn 0.000000 1.000000 0.000000
vn 0.000000 1.000000 0.000000
vn 0.000000 1.000000 0.000000
vn 0.000000 1.000000 0.000000
vn 0.000000 1.000000 0.000000
vn 0.000000 1.000000 0.000000
vn 0.000000 1.000000 0.000000
vn 0.000000 1.000000 0.000000
vn 0.000000 1.000000 0.000000
vn 0.000000 1.000000 0.000000
vn 0.000000 1.000000 0.000000
vn 0.000000 1.000000 0.000000
vn 0.000000 1.000000 0.000000
vn 0.000000 1.000000 0.000000
vn 0.000000 1.000000 0.000000
vn 0.000000 1.000000 0.000000
vn -0.000000 1.000000 0.000000
vn -0.000000 1.000000 0.000000
vn -0.000000 1.000000 0.000000
vn -0.000000 1.000000 0.000000
s off
g pPlane1
usemtl chongdong_luxian_initialShadingGroup
f 1/1/1 2/2/2 3/3/3 4/4/4
f 5/5/5 1/1/6 4/4/7 6/6/8
f 2/7/9 1/8/10 7/9/11 8/10/12
f 9/11/13 10/12/14 11/13/15 12/14/16
f 12/15/17 11/16/18 13/17/19 14/18/20
f 14/19/21 13/20/22 15/21/23 16/22/24
s 7
f 104/202/25 105/203/26 17/25/27 18/26/28
s off
f 18/27/29 17/28/30 19/29/31
f 1/30/32 5/31/33 20/32/34 21/33/35
f 21/34/36 20/35/37 22/36/38 23/37/39
f 24/38/40 25/39/41 26/40/42 27/41/43
s 12
f 21/42/44 23/43/45 106/204/46 107/205/47
s off
f 10/46/48 30/47/49 31/48/50 11/49/51
f 32/50/52 19/51/53 17/52/54
f 11/53/55 31/54/56 19/51/57 32/50/58
f 8/55/59 7/56/60 33/57/61
f 8/55/62 33/57/63 29/58/64
f 8/59/65 29/58/66 10/12/67 9/11/68
f 29/60/69 28/61/70 30/47/71 10/46/72
f 30/62/73 28/63/74 34/64/75 35/65/76
f 23/66/77 22/67/78 25/39/79 24/38/80
f 35/65/81 34/64/82 36/68/83
f 24/69/84 27/70/85 36/71/86 34/72/87
f 19/73/88 31/74/89 37/75/90 38/76/91
f 38/77/92 37/78/93 39/79/94 40/80/95
f 39/81/96 37/82/97 41/83/98 42/84/99
f 42/85/100 41/86/101 43/87/102 44/88/103
f 44/89/104 43/90/105 45/91/106
f 46/92/107 44/89/108 45/91/109 47/93/110
f 48/94/111 42/85/112 44/88/113 46/95/114
f 49/96/115 39/81/116 42/84/117 48/97/118
f 40/80/119 39/79/120 49/98/121 50/99/122
f 45/100/123 43/101/124 51/102/125 52/103/126
f 53/104/127 54/105/128 55/106/129 56/107/130
f 54/108/131 57/109/132 58/110/133 55/111/134
f 38/112/135 40/113/136 54/105/137 53/104/138
f 40/114/139 50/115/140 57/109/141 54/108/142
f 55/111/143 58/110/144 59/116/145 60/117/146
f 56/107/147 55/106/148 60/118/149 61/119/150
f 58/120/151 57/121/152 62/122/153 63/123/154
f 63/124/155 62/125/156 64/126/157 65/127/158
f 65/128/159 64/129/160 66/130/161 67/131/162
f 66/132/163 64/133/164 68/134/165 69/135/166
f 69/136/167 68/137/168 70/138/169 71/139/170
f 72/140/171 73/141/172 74/142/173 75/143/174
f 76/144/175 77/145/176 78/146/177 79/147/178
f 71/148/179 70/149/180 73/141/181 72/140/182
f 72/150/183 75/151/184 80/152/185 81/153/186
f 81/154/187 80/155/188 82/156/189 83/157/190
f 75/158/191 74/159/192 84/160/193 85/161/194
f 85/161/195 84/160/196 77/145/197 76/144/198
f 86/162/199 87/163/200 88/164/201 89/165/202
f 83/157/203 82/156/204 87/163/205 86/162/206
f 85/166/207 76/167/208 87/168/209 82/169/210
f 89/170/211 88/171/212 90/172/213 91/173/214
f 90/174/215 88/175/216 92/176/217 93/177/218
f 93/177/219 92/176/220 94/178/221 95/179/222
f 94/180/223 92/181/224 79/182/225 78/183/226
f 50/184/227 49/185/228 96/186/229 97/187/230
f 97/187/231 96/186/232 98/188/233 99/189/234
f 100/190/235 101/191/236 102/192/237 103/193/238
f 93/194/239 95/195/240 97/196/241 99/197/242
f 99/189/243 98/188/244 101/191/245 100/190/246
f 100/198/247 103/199/248 91/200/249 90/201/250
s 7
f 16/23/251 15/24/252 105/203/26 104/202/25
s 12
f 107/205/47 106/204/46 28/44/253 29/45/254
s off
f 3/206/255 2/207/256 108/208/257 109/209/258
