# This file uses centimeters as units for non-parametric coordinates.

mtllib 60jifuben_dimian.mtl
g default
v -1.974012 0.267320 -4.144293
v -3.645131 0.267320 -3.782951
v -0.839518 0.267320 -1.370151
v -3.401306 0.267320 1.809875
v -2.255028 0.267320 3.314456
v -0.687576 0.267320 0.435871
v 1.021366 0.267320 2.435043
v 2.048893 0.267320 1.110987
v 2.360778 0.267320 -0.309443
v 1.963812 0.267320 -2.052180
v 0.710215 0.267320 -3.620115
v -0.748664 0.267320 -4.329469
v -9.408628 0.267320 0.247843
v -10.879623 0.267320 -3.163872
v -12.094496 0.267320 -1.639418
v -8.278165 0.267320 -4.011774
v -7.540988 0.267320 -0.055167
v -12.619013 0.267320 0.312944
v -10.257133 0.267320 0.597233
v -12.266553 0.267320 1.912346
v -12.303811 0.267320 7.531119
v -9.598001 0.267320 7.402489
v -10.140838 0.267320 1.696978
v -13.819275 0.267320 11.986318
v -14.786920 0.267320 13.399827
v -10.736470 0.267320 15.118208
v -15.008179 0.267320 15.969861
v -14.128595 0.267320 18.564030
v -11.192809 0.267320 19.906273
v -10.182825 0.267320 19.791945
v -9.285437 0.267320 19.525810
v -8.166835 0.267320 19.116480
v -6.850390 0.267320 16.383436
v -7.545223 0.267320 12.397381
v -9.124788 0.267320 12.351230
v -9.877269 0.267320 12.127695
v -0.271215 0.267320 11.115954
v -0.097990 0.267320 13.565392
v 2.188771 0.267320 15.132650
v 3.952340 0.267320 14.955872
v -6.740060 0.267320 26.493666
v -7.205270 0.267320 23.660875
v -2.543080 0.267320 23.010151
v -2.395581 0.267320 25.576914
v -0.150377 0.267320 24.774275
v -0.881192 0.267320 22.854958
v 3.476714 0.267320 19.107447
v 1.358222 0.267320 19.194462
v -4.309697 0.267320 26.107323
v -4.647582 0.267320 23.434111
v 1.614194 0.267320 16.879908
v 3.723193 0.267320 16.816877
v -6.206594 0.267320 15.603664
v -6.469522 0.267320 12.755228
v -12.382923 0.267320 8.829628
v -10.094773 0.267320 8.871359
v -10.552943 0.267320 11.310201
v -13.002722 0.267320 11.430387
v -10.354492 0.267320 9.799242
v -12.703552 0.267320 9.939090
v -0.747089 0.267320 3.787282
v -6.840952 0.267320 25.564207
v -6.994109 0.267320 24.666826
v -4.523013 0.267320 24.206293
v -4.434267 0.267320 25.127665
v -2.498995 0.267320 23.820774
v -2.439665 0.267320 24.909927
v -0.771755 0.267320 23.323853
v -0.444678 0.267320 24.292826
v -3.678921 0.267320 12.032892
v -3.532212 0.267320 14.624043
v -6.432996 0.267320 16.074511
v -7.219912 0.267320 12.597055
v -8.456898 0.267320 12.391570
v -7.269382 0.267320 18.046993
v -10.268843 0.267320 16.207888
v -9.778091 0.267320 16.175714
v -9.002926 0.267320 16.213131
v -7.881956 0.267320 16.338194
v -9.964469 0.267320 17.031439
v -9.075933 0.267320 17.248257
v -8.050177 0.267320 17.031097
v -7.522465 0.267320 16.589600
v -8.762100 0.267320 -0.848444
v -8.006907 0.267320 -0.354344
v -8.627827 0.267320 -0.229482
v -8.976143 0.267320 -0.575646
v -8.170696 0.267320 -0.925910
v -6.477957 0.267320 -0.178247
v -7.758126 0.267320 -0.489101
v -7.681909 0.267320 -0.788039
v -7.493520 0.267320 -3.841721
v -4.931092 0.267320 0.325886
vt 2.381883 3.674008
vt 1.848494 3.441256
vt 2.946681 2.824448
vt 2.305286 1.591316
vt 2.788795 1.166188
vt 3.118618 2.231983
vt 3.823086 1.679582
vt 4.077088 2.190392
vt 4.085813 2.685322
vt 3.836360 3.240221
vt 3.312785 3.679282
vt 2.778345 3.818057
vt 0.195796 1.709311
vt -0.524082 2.749056
vt -0.827156 2.158801
vt 0.702467 2.170890
vt 0.560353 3.202543
vt 0.287104 3.206620
vt 0.530105 2.184087
vt -0.871136 1.472093
vt -0.063897 1.535765
vt -3.204057 0.641488
vt -3.708899 -0.118231
vt -1.539626 -1.003451
vt -3.807847 -1.488256
vt -3.320460 -2.863193
vt -1.747290 -3.556218
vt -1.210372 -3.487895
vt -1.282604 -1.580204
vt -1.021547 -1.559462
vt 0.538824 -1.648517
vt 0.139541 0.468720
vt -0.345917 0.465107
vt -0.010759 -1.632021
vt -0.701827 0.481673
vt -1.104121 0.595161
vt 1.937101 -1.148789
vt 1.965093 -1.465419
vt 2.634409 -1.248076
vt 2.585371 -1.066039
vt 0.121328 -1.465217
vt 0.217291 -1.856064
vt 1.178169 -1.643101
vt 1.119189 -1.342584
vt 2.468663 -0.433297
vt 3.516161 -0.414040
vt 3.640556 0.508658
vt 2.763917 0.430952
vt 2.328361 -1.581032
vt 3.380709 -1.549920
vt 0.758790 -1.480961
vt 0.314220 0.364798
vt -0.734528 -3.339573
vt -1.114467 -2.016459
vt 2.195448 0.691233
vt 2.292624 -0.687330
vt 4.113368 -0.098394
vt 4.003116 1.204521
vt -0.990127 3.113118
vt -2.429874 3.024760
vt -2.462461 2.332796
vt -1.243844 2.327379
vt -1.469884 1.025469
vt -2.773371 0.943486
vt -1.375316 1.831427
vt -2.625031 1.739715
vt -0.646163 0.962033
vt 0.048730 1.176588
vt 0.284840 2.013139
vt 3.323730 1.109631
vt 1.225107 -2.002473
vt 0.289116 -2.205194
vt 0.340915 -2.567569
vt 1.286836 -2.384179
vt 2.002743 -1.890837
vt 2.028833 -2.151256
vt 2.775240 -1.622918
vt 2.896785 -1.807418
vt 0.714924 0.286100
vt 0.875872 -1.228597
vt -0.608537 -1.573681
vt 0.182503 -1.763233
vt -0.141960 -3.113381
vt -0.639769 -2.125360
vt 0.327992 -2.537333
vt -0.095215 -2.002184
vt 0.337954 2.118539
vt 0.424308 1.921006
vt 0.798687 1.935791
vt 0.623128 2.004351
vt 0.697100 2.066019
vt 1.145158 2.048220
vt 1.695185 1.983828
vn 0.000000 1.000000 0.000000
vn 0.000000 1.000000 0.000000
vn 0.000000 1.000000 0.000000
vn 0.000000 1.000000 0.000000
vn 0.000000 1.000000 0.000000
vn 0.000000 1.000000 0.000000
vn 0.000000 1.000000 0.000000
vn 0.000000 1.000000 0.000000
vn 0.000000 1.000000 0.000000
vn 0.000000 1.000000 0.000000
vn 0.000000 1.000000 0.000000
vn 0.000000 1.000000 0.000000
vn 0.000000 1.000000 0.000000
vn 0.000000 1.000000 0.000000
vn 0.000000 1.000000 0.000000
vn 0.000000 1.000000 0.000000
vn 0.000000 1.000000 0.000000
vn 0.000000 1.000000 0.000000
vn 0.000000 1.000000 0.000000
vn 0.000000 1.000000 0.000000
vn 0.000000 1.000000 0.000000
vn 0.000000 1.000000 0.000000
vn 0.000000 1.000000 0.000000
vn 0.000000 1.000000 0.000000
vn 0.000000 1.000000 0.000000
vn 0.000000 1.000000 0.000000
vn 0.000000 1.000000 0.000000
vn 0.000000 1.000000 0.000000
vn 0.000000 1.000000 0.000000
vn 0.000000 1.000000 0.000000
vn 0.000000 1.000000 0.000000
vn 0.000000 1.000000 0.000000
vn 0.000000 1.000000 0.000000
vn 0.000000 1.000000 0.000000
vn 0.000000 1.000000 0.000000
vn 0.000000 1.000000 0.000000
vn 0.000000 1.000000 0.000000
vn 0.000000 1.000000 0.000000
vn 0.000000 1.000000 0.000000
vn 0.000000 1.000000 0.000000
vn 0.000000 1.000000 0.000000
vn 0.000000 1.000000 0.000000
vn 0.000000 1.000000 0.000000
vn 0.000000 1.000000 0.000000
vn 0.000000 1.000000 0.000000
vn 0.000000 1.000000 0.000000
vn 0.000000 1.000000 0.000000
vn 0.000000 1.000000 0.000000
vn 0.000000 1.000000 0.000000
vn 0.000000 1.000000 0.000000
vn 0.000000 1.000000 0.000000
vn 0.000000 1.000000 0.000000
vn 0.000000 1.000000 0.000000
vn 0.000000 1.000000 0.000000
vn 0.000000 1.000000 0.000000
vn 0.000000 1.000000 0.000000
vn 0.000000 1.000000 0.000000
vn 0.000000 1.000000 0.000000
vn 0.000000 1.000000 0.000000
vn 0.000000 1.000000 0.000000
vn 0.000000 1.000000 0.000000
vn 0.000000 1.000000 0.000000
vn 0.000000 1.000000 0.000000
vn 0.000000 1.000000 0.000000
vn 0.000000 1.000000 0.000000
vn 0.000000 1.000000 0.000000
vn 0.000000 1.000000 0.000000
vn 0.000000 1.000000 0.000000
vn 0.000000 1.000000 0.000000
vn 0.000000 1.000000 0.000000
vn 0.000000 1.000000 0.000000
vn 0.000000 1.000000 -0.000000
vn 0.000000 1.000000 0.000000
vn 0.000000 1.000000 0.000000
vn 0.000000 1.000000 0.000000
vn 0.000000 1.000000 0.000000
vn 0.000000 1.000000 0.000000
vn 0.000000 1.000000 0.000000
vn 0.000000 1.000000 0.000000
vn 0.000000 1.000000 0.000000
vn 0.000000 1.000000 0.000000
vn 0.000000 1.000000 0.000000
vn 0.000000 1.000000 0.000000
vn 0.000000 1.000000 0.000000
vn 0.000000 1.000000 0.000000
vn 0.000000 1.000000 0.000000
vn 0.000000 1.000000 -0.000000
vn 0.000000 1.000000 -0.000000
vn 0.000000 1.000000 0.000000
vn 0.000000 1.000000 0.000000
vn 0.000000 1.000000 0.000000
vn 0.000000 1.000000 -0.000000
vn 0.000000 1.000000 -0.000000
vn 0.000000 1.000000 0.000000
vn 0.000000 1.000000 0.000000
vn 0.000000 1.000000 0.000000
vn 0.000000 1.000000 0.000000
vn 0.000000 1.000000 0.000000
vn 0.000000 1.000000 0.000000
vn 0.000000 1.000000 0.000000
vn 0.000000 1.000000 0.000000
vn 0.000000 1.000000 0.000000
vn 0.000000 1.000000 0.000000
vn 0.000000 1.000000 0.000000
vn 0.000000 1.000000 0.000000
vn 0.000000 1.000000 0.000000
vn 0.000000 1.000000 0.000000
vn 0.000000 1.000000 0.000000
vn 0.000000 1.000000 0.000000
vn 0.000000 1.000000 0.000000
vn 0.000000 1.000000 0.000000
vn 0.000000 1.000000 0.000000
vn 0.000000 1.000000 0.000000
vn 0.000000 1.000000 0.000000
vn 0.000000 1.000000 0.000000
vn 0.000000 1.000000 0.000000
vn 0.000000 1.000000 0.000000
vn 0.000000 1.000000 0.000000
vn 0.000000 1.000000 0.000000
vn 0.000000 1.000000 0.000000
vn 0.000000 1.000000 0.000000
vn 0.000000 1.000000 0.000000
vn 0.000000 1.000000 0.000000
vn 0.000000 1.000000 0.000000
vn 0.000000 1.000000 0.000000
vn 0.000000 1.000000 0.000000
vn 0.000000 1.000000 0.000000
vn 0.000000 1.000000 0.000000
vn 0.000000 1.000000 -0.000000
vn 0.000000 1.000000 -0.000000
vn 0.000000 1.000000 0.000000
vn 0.000000 1.000000 0.000000
vn 0.000000 1.000000 0.000000
vn 0.000000 1.000000 0.000000
vn 0.000000 1.000000 0.000000
vn 0.000000 1.000000 -0.000000
vn 0.000000 1.000000 0.000000
vn 0.000000 1.000000 0.000000
vn 0.000000 1.000000 0.000000
vn 0.000000 1.000000 0.000000
vn 0.000000 1.000000 0.000000
vn 0.000000 1.000000 0.000000
vn 0.000000 1.000000 0.000000
vn 0.000000 1.000000 0.000000
vn 0.000000 1.000000 0.000000
vn 0.000000 1.000000 0.000000
vn 0.000000 1.000000 0.000000
vn 0.000000 1.000000 0.000000
vn 0.000000 1.000000 0.000000
vn 0.000000 1.000000 0.000000
vn 0.000000 1.000000 0.000000
vn 0.000000 1.000000 0.000000
vn 0.000000 1.000000 0.000000
vn 0.000000 1.000000 0.000000
vn 0.000000 1.000000 0.000000
vn 0.000000 1.000000 -0.000000
vn 0.000000 1.000000 0.000000
vn 0.000000 1.000000 0.000000
vn 0.000000 1.000000 0.000000
vn 0.000000 1.000000 0.000000
vn 0.000000 1.000000 0.000000
vn 0.000000 1.000000 0.000000
vn 0.000000 1.000000 -0.000000
vn 0.000000 1.000000 -0.000000
vn 0.000000 1.000000 0.000000
vn 0.000000 1.000000 0.000000
vn 0.000000 1.000000 0.000000
vn 0.000000 1.000000 0.000000
vn 0.000000 1.000000 -0.000000
vn 0.000000 1.000000 -0.000000
vn 0.000000 1.000000 -0.000000
vn 0.000000 1.000000 0.000000
vn 0.000000 1.000000 -0.000000
vn 0.000000 1.000000 -0.000000
vn 0.000000 1.000000 0.000000
vn 0.000000 1.000000 -0.000000
vn 0.000000 1.000000 -0.000000
vn 0.000000 1.000000 0.000000
vn 0.000000 1.000000 0.000000
vn 0.000000 1.000000 0.000000
vn 0.000000 1.000000 0.000000
vn 0.000000 1.000000 0.000000
vn 0.000000 1.000000 0.000000
vn 0.000000 1.000000 0.000000
vn 0.000000 1.000000 0.000000
vn 0.000000 1.000000 0.000000
vn 0.000000 1.000000 0.000000
vn 0.000000 1.000000 0.000000
vn 0.000000 1.000000 -0.000000
vn 0.000000 1.000000 0.000000
vn 0.000000 1.000000 -0.000000
vn 0.000000 1.000000 0.000000
vn 0.000000 1.000000 0.000000
vn 0.000000 1.000000 0.000000
vn 0.000000 1.000000 0.000000
vn 0.000000 1.000000 0.000000
vn 0.000000 1.000000 0.000000
vn 0.000000 1.000000 0.000000
vn 0.000000 1.000000 0.000000
vn 0.000000 1.000000 0.000000
vn 0.000000 1.000000 0.000000
vn 0.000000 1.000000 0.000000
vn 0.000000 1.000000 0.000000
vn 0.000000 1.000000 -0.000000
vn 0.000000 1.000000 0.000000
vn 0.000000 1.000000 0.000000
vn 0.000000 1.000000 0.000000
vn 0.000000 1.000000 0.000000
s off
g fuben_dimian
usemtl lambert2SG
f 1/1/1 2/2/2 3/3/3
f 2/2/4 4/4/5 3/3/6
f 4/4/7 5/5/8 3/3/9
f 5/5/10 6/6/11 3/3/12
f 6/6/13 7/7/14 3/3/15
f 8/8/16 9/9/17 3/3/18
f 9/9/19 10/10/20 3/3/21
f 10/10/22 11/11/23 3/3/24
f 11/11/25 12/12/26 3/3/27
f 12/12/28 1/1/29 3/3/30
f 13/13/31 14/14/32 15/15/33
f 91/16/34 92/17/35 16/18/36 88/19/37
f 13/13/38 15/15/39 18/20/40 19/21/41
f 24/22/42 25/23/43 26/24/44
f 25/23/45 27/25/46 26/24/47
f 27/25/48 28/26/49 26/24/50
f 29/27/51 30/28/52 26/24/53
f 76/29/54 77/30/55 26/24/56
f 33/31/57 34/32/58 74/33/59 79/34/60
f 35/35/61 36/36/62 26/24/63
f 36/36/64 24/22/65 26/24/66
s 22
f 43/37/67 66/38/68 68/39/69 46/40/70
f 42/41/71 63/42/72 64/43/73 50/44/74
f 50/44/75 64/43/73 66/38/68 43/37/76
s off
f 51/45/77 52/46/78 40/47/79 39/48/80
f 48/49/81 47/50/82 52/46/83 51/45/84
f 34/32/85 33/31/86 72/51/87 73/52/88
f 30/28/89 31/53/90 80/54/91
s 27
f 70/55/92 71/56/93 38/57/94 37/58/95
s off
f 28/26/96 29/27/97 26/24/98
f 22/59/99 21/60/100 55/61/101 56/62/102
f 57/63/103 58/64/104 24/22/105 36/36/106
f 59/65/107 60/66/108 58/64/109 57/63/110
f 19/21/111 18/20/112 20/67/113 23/68/114
f 56/62/115 55/61/116 60/66/117 59/65/118
f 87/69/119 14/14/120 13/13/121
f 6/6/122 5/5/123 61/70/124 7/7/125
f 7/7/126 8/8/127 3/3/128
s 22
f 65/71/129 62/72/130 41/73/131 49/74/132
f 67/75/133 65/71/129 49/74/134 44/76/135
f 69/77/136 67/75/133 44/76/137 45/78/138
f 63/42/72 62/72/130 65/71/129 64/43/73
f 64/43/73 65/71/129 67/75/133 66/38/68
f 66/38/68 67/75/133 69/77/136 68/39/69
s 27
f 54/79/139 53/80/140 71/56/93 70/55/92
s off
f 73/52/141 72/51/142 53/80/143 54/79/144
f 74/33/145 35/35/146 26/24/147
f 79/34/148 74/33/149 26/24/150 78/81/151
f 77/30/152 78/81/153 26/24/154
f 30/28/155 76/29/156 26/24/157
f 33/31/158 79/34/159 83/82/160
f 31/53/161 32/83/162 81/84/163 80/54/164
f 32/83/165 75/85/166 82/86/167 81/84/168
f 75/85/169 83/82/170 82/86/171
f 33/31/172 83/82/173 75/85/174
f 30/28/175 80/54/176 76/29/177
f 88/19/178 16/18/179 14/14/180 84/87/181
f 86/88/182 87/69/183 13/13/184
f 17/89/185 85/90/186 86/88/187 13/13/188
f 84/87/189 14/14/190 87/69/191
f 90/91/192 85/90/193 17/89/194
f 89/92/195 91/16/196 90/91/197 17/89/198
f 89/92/199 92/17/200 91/16/201
f 4/4/202 2/2/203 93/93/204
f 93/93/205 2/2/206 92/17/207 89/92/208
